<mxfile host="65bd71144e">
    <diagram id="bvMxqJy8REenpndCrTQX" name="Page-1">
        <mxGraphModel dx="1343" dy="1728" grid="1" gridSize="10" guides="1" tooltips="1" connect="1" arrows="1" fold="1" page="1" pageScale="1" pageWidth="850" pageHeight="1100" background="none" math="0" shadow="1">
            <root>
                <mxCell id="0"/>
                <mxCell id="1" parent="0"/>
                <mxCell id="8" value="Topic&amp;nbsp; 210.2" style="ellipse;whiteSpace=wrap;html=1;align=center;treeFolding=1;treeMoving=1;newEdgeStyle={&quot;edgeStyle&quot;:&quot;entityRelationEdgeStyle&quot;,&quot;startArrow&quot;:&quot;none&quot;,&quot;endArrow&quot;:&quot;none&quot;,&quot;segment&quot;:10,&quot;curved&quot;:1};fillColor=#647687;fontColor=#CCCCCC;strokeColor=#314354;shadow=1;sketch=0;" parent="1" vertex="1">
                    <mxGeometry x="350" y="-515" width="130" height="60" as="geometry"/>
                </mxCell>
                <mxCell id="74" value="pam_sss" style="whiteSpace=wrap;html=1;rounded=1;arcSize=50;align=center;verticalAlign=middle;strokeWidth=1;autosize=1;spacing=4;treeFolding=1;treeMoving=1;newEdgeStyle={&quot;edgeStyle&quot;:&quot;entityRelationEdgeStyle&quot;,&quot;startArrow&quot;:&quot;none&quot;,&quot;endArrow&quot;:&quot;none&quot;,&quot;segment&quot;:10,&quot;curved&quot;:1};fillColor=#647687;fontColor=#CCCCCC;strokeColor=#314354;shadow=1;sketch=0;" parent="1" vertex="1">
                    <mxGeometry x="150" y="-505" width="75" height="40" as="geometry"/>
                </mxCell>
                <mxCell id="75" value="" style="edgeStyle=entityRelationEdgeStyle;startArrow=none;endArrow=none;segment=10;curved=1;exitX=0.5;exitY=1;exitDx=0;exitDy=0;fillColor=#647687;strokeColor=#314354;shadow=1;fontColor=#CCCCCC;sketch=0;entryX=1;entryY=0.5;entryDx=0;entryDy=0;" parent="1" source="8" target="74" edge="1">
                    <mxGeometry relative="1" as="geometry">
                        <mxPoint x="329.02" y="-415" as="sourcePoint"/>
                    </mxGeometry>
                </mxCell>
                <mxCell id="78" value="&lt;pre style=&quot;box-sizing: border-box ; font-family: , , &amp;quot;sf mono&amp;quot; , &amp;quot;menlo&amp;quot; , &amp;quot;consolas&amp;quot; , &amp;quot;liberation mono&amp;quot; , monospace ; font-size: 13.6px ; margin-top: 0px ; margin-bottom: 0px ; overflow-wrap: normal ; padding: 16px ; overflow: auto ; line-height: 1.45 ; border-radius: 6px ; word-break: normal ; color: rgb(201 , 209 , 217)&quot;&gt;/etc/pam.d&lt;/pre&gt;" style="whiteSpace=wrap;html=1;rounded=1;arcSize=50;align=center;verticalAlign=middle;strokeWidth=1;autosize=1;spacing=4;treeFolding=1;treeMoving=1;newEdgeStyle={&quot;edgeStyle&quot;:&quot;entityRelationEdgeStyle&quot;,&quot;startArrow&quot;:&quot;none&quot;,&quot;endArrow&quot;:&quot;none&quot;,&quot;segment&quot;:10,&quot;curved&quot;:1};fillColor=#647687;fontColor=#CCCCCC;strokeColor=#314354;shadow=1;sketch=0;" parent="1" vertex="1">
                    <mxGeometry x="310" y="-687" width="100" height="47" as="geometry"/>
                </mxCell>
                <mxCell id="79" value="" style="edgeStyle=entityRelationEdgeStyle;startArrow=none;endArrow=none;segment=10;curved=1;exitX=0.5;exitY=0;exitDx=0;exitDy=0;fillColor=#647687;strokeColor=#314354;fontColor=#CCCCCC;shadow=1;sketch=0;entryX=0.5;entryY=1;entryDx=0;entryDy=0;" parent="1" source="8" target="78" edge="1">
                    <mxGeometry relative="1" as="geometry">
                        <mxPoint x="500" y="-465" as="sourcePoint"/>
                    </mxGeometry>
                </mxCell>
                <mxCell id="83" value="&lt;pre style=&quot;box-sizing: border-box ; font-family: , , &amp;quot;sf mono&amp;quot; , &amp;quot;menlo&amp;quot; , &amp;quot;consolas&amp;quot; , &amp;quot;liberation mono&amp;quot; , monospace ; font-size: 13.6px ; margin-top: 0px ; margin-bottom: 0px ; overflow-wrap: normal ; padding: 16px ; overflow: auto ; line-height: 1.45 ; border-radius: 6px ; word-break: normal ; color: rgb(201 , 209 , 217)&quot;&gt;pam.conf&lt;/pre&gt;" style="whiteSpace=wrap;html=1;rounded=1;arcSize=50;align=center;verticalAlign=middle;strokeWidth=1;autosize=1;spacing=4;treeFolding=1;treeMoving=1;newEdgeStyle={&quot;edgeStyle&quot;:&quot;entityRelationEdgeStyle&quot;,&quot;startArrow&quot;:&quot;none&quot;,&quot;endArrow&quot;:&quot;none&quot;,&quot;segment&quot;:10,&quot;curved&quot;:1};fillColor=#647687;fontColor=#CCCCCC;strokeColor=#314354;shadow=1;sketch=0;" parent="1" vertex="1">
                    <mxGeometry x="480" y="-670" width="87" height="43" as="geometry"/>
                </mxCell>
                <mxCell id="84" value="" style="edgeStyle=entityRelationEdgeStyle;startArrow=none;endArrow=none;segment=10;curved=1;fillColor=#647687;strokeColor=#314354;shadow=1;fontColor=#CCCCCC;sketch=0;entryX=0.5;entryY=1;entryDx=0;entryDy=0;exitX=0.808;exitY=0.05;exitDx=0;exitDy=0;exitPerimeter=0;" parent="1" source="8" target="83" edge="1">
                    <mxGeometry relative="1" as="geometry">
                        <mxPoint x="400.9619407771256" y="-456.21320343559637" as="sourcePoint"/>
                    </mxGeometry>
                </mxCell>
                <mxCell id="85" value="pam_limits" style="whiteSpace=wrap;html=1;rounded=1;arcSize=50;align=center;verticalAlign=middle;strokeWidth=1;autosize=1;spacing=4;treeFolding=1;treeMoving=1;newEdgeStyle={&quot;edgeStyle&quot;:&quot;entityRelationEdgeStyle&quot;,&quot;startArrow&quot;:&quot;none&quot;,&quot;endArrow&quot;:&quot;none&quot;,&quot;segment&quot;:10,&quot;curved&quot;:1};fillColor=#647687;fontColor=#CCCCCC;strokeColor=#314354;shadow=1;sketch=0;" parent="1" vertex="1">
                    <mxGeometry x="350" y="-320" width="100" height="40" as="geometry"/>
                </mxCell>
                <mxCell id="86" value="" style="edgeStyle=entityRelationEdgeStyle;startArrow=none;endArrow=none;segment=10;curved=1;exitX=0.5;exitY=1;exitDx=0;exitDy=0;fillColor=#647687;strokeColor=#314354;shadow=1;fontColor=#CCCCCC;sketch=0;entryX=0.5;entryY=0;entryDx=0;entryDy=0;" parent="1" source="8" target="85" edge="1">
                    <mxGeometry relative="1" as="geometry">
                        <mxPoint x="400.9619407771256" y="-456.21320343559637" as="sourcePoint"/>
                    </mxGeometry>
                </mxCell>
                <mxCell id="88" value="pan_unix" style="whiteSpace=wrap;html=1;rounded=1;arcSize=50;align=center;verticalAlign=middle;strokeWidth=1;autosize=1;spacing=4;treeFolding=1;treeMoving=1;newEdgeStyle={&quot;edgeStyle&quot;:&quot;entityRelationEdgeStyle&quot;,&quot;startArrow&quot;:&quot;none&quot;,&quot;endArrow&quot;:&quot;none&quot;,&quot;segment&quot;:10,&quot;curved&quot;:1};fillColor=#647687;fontColor=#CCCCCC;strokeColor=#314354;shadow=1;sketch=0;" parent="1" vertex="1">
                    <mxGeometry x="590" y="-465" width="80" height="45" as="geometry"/>
                </mxCell>
                <mxCell id="89" value="" style="edgeStyle=entityRelationEdgeStyle;startArrow=none;endArrow=none;segment=10;curved=1;exitX=1;exitY=0.5;exitDx=0;exitDy=0;fillColor=#647687;strokeColor=#314354;shadow=1;fontColor=#CCCCCC;sketch=0;" parent="1" source="8" target="88" edge="1">
                    <mxGeometry relative="1" as="geometry">
                        <mxPoint x="390.0019407771256" y="-331.21320343559637" as="sourcePoint"/>
                    </mxGeometry>
                </mxCell>
                <mxCell id="93" value="nsswitch.conf" style="whiteSpace=wrap;html=1;rounded=1;arcSize=50;align=center;verticalAlign=middle;strokeWidth=1;autosize=1;spacing=4;treeFolding=1;treeMoving=1;newEdgeStyle={&quot;edgeStyle&quot;:&quot;entityRelationEdgeStyle&quot;,&quot;startArrow&quot;:&quot;none&quot;,&quot;endArrow&quot;:&quot;none&quot;,&quot;segment&quot;:10,&quot;curved&quot;:1};fillColor=#647687;fontColor=#CCCCCC;strokeColor=#314354;shadow=1;sketch=0;" parent="1" vertex="1">
                    <mxGeometry x="550" y="-570" width="100" height="40" as="geometry"/>
                </mxCell>
                <mxCell id="94" value="" style="edgeStyle=entityRelationEdgeStyle;startArrow=none;endArrow=none;segment=10;curved=1;exitX=0.977;exitY=0.267;exitDx=0;exitDy=0;fillColor=#647687;strokeColor=#314354;shadow=1;fontColor=#CCCCCC;sketch=0;exitPerimeter=0;" parent="1" source="8" target="93" edge="1">
                    <mxGeometry relative="1" as="geometry">
                        <mxPoint x="410.9619407771256" y="-446.21320343559637" as="sourcePoint"/>
                    </mxGeometry>
                </mxCell>
                <mxCell id="96" value="pan_cracklib" style="whiteSpace=wrap;html=1;rounded=1;arcSize=50;align=center;verticalAlign=middle;strokeWidth=1;autosize=1;spacing=4;treeFolding=1;treeMoving=1;newEdgeStyle={&quot;edgeStyle&quot;:&quot;entityRelationEdgeStyle&quot;,&quot;startArrow&quot;:&quot;none&quot;,&quot;endArrow&quot;:&quot;none&quot;,&quot;segment&quot;:10,&quot;curved&quot;:1};fillColor=#647687;fontColor=#CCCCCC;strokeColor=#314354;shadow=1;sketch=0;" parent="1" vertex="1">
                    <mxGeometry x="500" y="-370" width="100" height="40" as="geometry"/>
                </mxCell>
                <mxCell id="97" value="" style="edgeStyle=entityRelationEdgeStyle;startArrow=none;endArrow=none;segment=10;curved=1;exitX=0.777;exitY=0.917;exitDx=0;exitDy=0;fillColor=#647687;strokeColor=#314354;shadow=1;fontColor=#CCCCCC;sketch=0;entryX=0.5;entryY=0;entryDx=0;entryDy=0;exitPerimeter=0;" parent="1" source="8" target="96" edge="1">
                    <mxGeometry relative="1" as="geometry">
                        <mxPoint x="400.9619407771256" y="-456.21320343559637" as="sourcePoint"/>
                    </mxGeometry>
                </mxCell>
                <mxCell id="99" value="pam_listfiles" style="whiteSpace=wrap;html=1;rounded=1;arcSize=50;align=center;verticalAlign=middle;strokeWidth=1;autosize=1;spacing=4;treeFolding=1;treeMoving=1;newEdgeStyle={&quot;edgeStyle&quot;:&quot;entityRelationEdgeStyle&quot;,&quot;startArrow&quot;:&quot;none&quot;,&quot;endArrow&quot;:&quot;none&quot;,&quot;segment&quot;:10,&quot;curved&quot;:1};fillColor=#647687;fontColor=#CCCCCC;strokeColor=#314354;shadow=1;sketch=0;" parent="1" vertex="1">
                    <mxGeometry x="200" y="-400" width="85" height="40" as="geometry"/>
                </mxCell>
                <mxCell id="100" value="" style="edgeStyle=entityRelationEdgeStyle;startArrow=none;endArrow=none;segment=10;curved=1;exitX=0.5;exitY=1;exitDx=0;exitDy=0;fillColor=#647687;strokeColor=#314354;shadow=1;fontColor=#CCCCCC;sketch=0;entryX=0.5;entryY=0;entryDx=0;entryDy=0;" parent="1" source="8" target="99" edge="1">
                    <mxGeometry relative="1" as="geometry">
                        <mxPoint x="320" y="-465" as="sourcePoint"/>
                    </mxGeometry>
                </mxCell>
                <mxCell id="102" value="sssd.conf" style="whiteSpace=wrap;html=1;rounded=1;arcSize=50;align=center;verticalAlign=middle;strokeWidth=1;autosize=1;spacing=4;treeFolding=1;treeMoving=1;newEdgeStyle={&quot;edgeStyle&quot;:&quot;entityRelationEdgeStyle&quot;,&quot;startArrow&quot;:&quot;none&quot;,&quot;endArrow&quot;:&quot;none&quot;,&quot;segment&quot;:10,&quot;curved&quot;:1};fillColor=#647687;fontColor=#CCCCCC;strokeColor=#314354;shadow=1;sketch=0;" parent="1" vertex="1">
                    <mxGeometry x="190" y="-610" width="75" height="40" as="geometry"/>
                </mxCell>
                <mxCell id="103" value="" style="edgeStyle=entityRelationEdgeStyle;startArrow=none;endArrow=none;segment=10;curved=1;exitX=0;exitY=0;exitDx=0;exitDy=0;fillColor=#647687;strokeColor=#314354;shadow=1;fontColor=#CCCCCC;sketch=0;entryX=0.5;entryY=1;entryDx=0;entryDy=0;" parent="1" source="8" target="102" edge="1">
                    <mxGeometry relative="1" as="geometry">
                        <mxPoint x="330" y="-455" as="sourcePoint"/>
                    </mxGeometry>
                </mxCell>
            </root>
        </mxGraphModel>
    </diagram>
</mxfile>